<svg class="svg-icon" style="width: 1em; height: 1em;vertical-align: middle;fill: currentColor;overflow: hidden;" viewBox="0 0 1024 1024" version="1.1" xmlns="http://www.w3.org/2000/svg"><path d="M237.714286 338.285714a27.428571 27.428571 0 0 0-27.428572 27.428572v347.428571a27.428571 27.428571 0 0 0 27.428572 27.428572h566.857143a27.428571 27.428571 0 0 0 27.428571-27.428572V365.714286a27.428571 27.428571 0 0 0-27.428571-27.428572h-155.629715l-22.491428-66.925714a9.142857 9.142857 0 0 0-8.667429-6.217143H428.617143a9.142857 9.142857 0 0 0-8.96 7.405714l-12.8 65.737143H237.714286z m0-27.428571h146.523428l8.466286-43.556572A36.571429 36.571429 0 0 1 428.617143 237.714286h189.184a36.571429 36.571429 0 0 1 34.669714 24.923428L668.653714 310.857143H804.571429a54.857143 54.857143 0 0 1 54.857142 54.857143v347.428571a54.857143 54.857143 0 0 1-54.857142 54.857143H237.714286a54.857143 54.857143 0 0 1-54.857143-54.857143V365.714286a54.857143 54.857143 0 0 1 54.857143-54.857143z m292.571428 397.714286a160 160 0 1 1 0-320 160 160 0 0 1 0 320z m0-27.428572a132.571429 132.571429 0 1 0 0-265.142857 132.571429 132.571429 0 0 0 0 265.142857z m0-50.285714a82.285714 82.285714 0 1 1 0-164.571429 82.285714 82.285714 0 0 1 0 164.571429z m0-18.285714a64 64 0 1 0 0-128 64 64 0 0 0 0 128zM704 384h73.142857a9.142857 9.142857 0 1 1 0 18.285714h-73.142857a9.142857 9.142857 0 1 1 0-18.285714z" fill="white" /></svg>