<?xml version="1.0" standalone="no"?>
<!DOCTYPE svg PUBLIC "-//W3C//DTD SVG 20010904//EN"
 "http://www.w3.org/TR/2001/REC-SVG-20010904/DTD/svg10.dtd">
<svg version="1.0" xmlns="http://www.w3.org/2000/svg"
 width="1200.000000pt" height="1200.000000pt" viewBox="0 0 1200.000000 1200.000000"
 preserveAspectRatio="xMidYMid meet">

<g transform="translate(0.000000,1200.000000) scale(0.100000,-0.100000)"
fill="#000000" stroke="none">
<path d="M3190 9490 c-321 -45 -587 -279 -671 -590 -33 -122 -34 -321 -1 -435
27 -94 79 -199 132 -271 21 -28 524 -537 1118 -1131 l1080 -1080 -1064 -1064
c-586 -585 -1087 -1091 -1114 -1125 -110 -137 -168 -294 -177 -481 -7 -141 18
-261 82 -390 52 -106 74 -136 166 -229 80 -82 178 -141 306 -187 86 -31 93
-32 258 -32 170 0 170 0 272 36 56 20 134 58 175 84 57 38 314 289 1161 1134
598 597 1090 1088 1092 1090 2 2 493 -486 1091 -1083 1162 -1161 1153 -1153
1314 -1215 115 -45 182 -54 337 -49 154 6 210 20 343 90 191 99 328 264 397
478 26 78 28 98 28 245 0 143 -3 168 -24 230 -28 81 -71 171 -114 235 -16 25
-521 537 -1121 1138 l-1091 1092 615 615 c338 339 819 819 1068 1068 250 248
477 484 507 522 82 109 113 177 157 350 5 22 8 101 6 175 -4 118 -8 146 -35
225 -57 165 -152 299 -284 400 -214 165 -530 207 -802 105 -143 -54 -150 -60
-1302 -1211 l-1090 -1089 -1080 1081 c-594 594 -1108 1100 -1141 1125 -161
116 -392 172 -594 144z"/>
</g>
</svg>
